<?xml version="1.0" encoding="UTF-8"?>
<!DOCTYPE svg PUBLIC "-//W3C//DTD SVG 1.1//EN" "http://www.w3.org/Graphics/SVG/1.1/DTD/svg11.dtd">
<svg xmlns="http://www.w3.org/2000/svg" version="1.1" width="512px" height="512px" style="shape-rendering:geometricPrecision; text-rendering:geometricPrecision; image-rendering:optimizeQuality; fill-rule:evenodd; clip-rule:evenodd" xmlns:xlink="http://www.w3.org/1999/xlink">
<g><path style="opacity:0.939" fill="#000000" d="M 511.5,89.5 C 511.5,92.5 511.5,95.5 511.5,98.5C 471.112,206.303 430.945,314.303 391,422.5C 386.651,427.195 381.818,427.695 376.5,424C 344.572,402.787 312.406,381.954 280,361.5C 248.097,382.537 216.264,403.703 184.5,425C 178.94,427.625 174.44,426.458 171,421.5C 162.656,373.772 153.99,326.105 145,278.5C 98.737,253.618 52.237,229.118 5.5,205C 3.34004,203.668 1.34004,202.168 -0.5,200.5C -0.5,197.5 -0.5,194.5 -0.5,191.5C 0.854084,189.304 2.85408,187.804 5.5,187C 170.167,153 334.833,119 499.5,85C 504.761,83.4742 508.761,84.9742 511.5,89.5 Z M 434.5,116.5 C 435.552,116.351 436.552,116.517 437.5,117C 342.953,165.44 248.286,213.607 153.5,261.5C 114.046,241.273 74.7125,220.773 35.5,200C 168.565,171.955 301.565,144.121 434.5,116.5 Z M 482.5,119.5 C 448.793,214.091 414.293,308.758 379,403.5C 329.081,371.124 279.248,338.624 229.5,306C 313.901,243.812 398.234,181.646 482.5,119.5 Z M 402.5,155.5 C 402.027,156.906 401.027,157.573 399.5,157.5C 399.973,156.094 400.973,155.427 402.5,155.5 Z M 399.5,157.5 C 335.335,205.512 270.835,253.178 206,300.5C 197.693,325.728 189.693,351.061 182,376.5C 175.344,343.559 169.344,310.559 164,277.5C 242.163,236.835 320.663,196.835 399.5,157.5 Z M 196.5,394.5 C 203.331,370.174 210.664,346.008 218.5,322C 233.649,330.76 248.649,340.093 263.5,350C 241.285,365.055 218.951,379.889 196.5,394.5 Z"/></g>
</svg>
