<?xml version="1.0" encoding="UTF-8"?>
<!DOCTYPE svg PUBLIC "-//W3C//DTD SVG 1.1//EN" "http://www.w3.org/Graphics/SVG/1.1/DTD/svg11.dtd">
<svg xmlns="http://www.w3.org/2000/svg" version="1.1" width="512px" height="512px" style="shape-rendering:geometricPrecision; text-rendering:geometricPrecision; image-rendering:optimizeQuality; fill-rule:evenodd; clip-rule:evenodd" xmlns:xlink="http://www.w3.org/1999/xlink">
<g><path style="opacity:0.94" fill="#000000" d="M 234.5,72.5 C 237.187,72.3359 239.854,72.5026 242.5,73C 296.5,91 350.5,109 404.5,127C 405.333,127.833 406.167,128.667 407,129.5C 425.333,179.167 443.667,228.833 462,278.5C 461.874,300.859 460.874,323.192 459,345.5C 458.535,346.931 457.701,348.097 456.5,349C 416.333,373.585 375.999,397.918 335.5,422C 295.394,427.968 255.228,433.468 215,438.5C 175.357,432.476 135.857,425.643 96.5,418C 80.0106,386.187 64.1773,354.021 49,321.5C 48.3333,318.833 48.3333,316.167 49,313.5C 58.6667,289.833 68.3333,266.167 78,242.5C 83.9626,234.07 89.796,225.57 95.5,217C 92.7003,178.918 79.8669,144.752 57,114.5C 54.4803,107.61 56.8136,103.277 64,101.5C 94.0651,114.23 116.398,135.23 131,164.5C 135.656,138.233 139.989,111.9 144,85.5C 146.209,76.6509 151.209,74.6509 159,79.5C 163.147,92.2743 167.48,104.941 172,117.5C 193.015,102.637 213.848,87.6368 234.5,72.5 Z M 238.5,89.5 C 286.316,104.827 333.983,120.661 381.5,137C 360.075,150.795 338.908,164.961 318,179.5C 307.679,213.782 297.513,248.115 287.5,282.5C 285.922,283.298 284.256,283.798 282.5,284C 236.503,286.444 190.503,288.444 144.5,290C 128.198,275.366 112.198,260.366 96.5,245C 121.702,210.096 146.535,174.93 171,139.5C 193.479,122.69 215.979,106.024 238.5,89.5 Z M 154.5,120.5 C 158.954,126.284 158.454,131.617 153,136.5C 153.381,131.197 153.881,125.864 154.5,120.5 Z M 93.5,141.5 C 104.807,152.329 113.64,164.996 120,179.5C 120.667,180.833 120.667,182.167 120,183.5C 116.667,188.167 113.333,192.833 110,197.5C 106.416,178.251 100.916,159.584 93.5,141.5 Z M 395.5,146.5 C 412.555,191.636 429.388,236.969 446,282.5C 445.822,299.866 444.822,317.199 443,334.5C 402.89,331.984 362.723,329.484 322.5,327C 315.452,315.074 308.786,302.907 302.5,290.5C 312.154,257.551 321.654,224.551 331,191.5C 352.654,176.601 374.154,161.601 395.5,146.5 Z M 87.5,261.5 C 88.552,261.351 89.552,261.517 90.5,262C 104.375,275.378 118.375,288.544 132.5,301.5C 121.926,330.972 111.092,360.305 100,389.5C 88.2247,365.617 76.7247,341.617 65.5,317.5C 73.0376,298.882 80.371,280.216 87.5,261.5 Z M 267.5,300.5 C 274.863,300.169 282.197,300.503 289.5,301.5C 297.135,314.437 303.968,327.77 310,341.5C 314.251,363.424 318.751,385.258 323.5,407C 287.209,412.412 250.875,417.578 214.5,422.5C 180.319,416.86 146.319,410.693 112.5,404C 124.665,371.672 136.332,339.172 147.5,306.5C 187.678,304.968 227.678,302.968 267.5,300.5 Z M 327.5,343.5 C 359.476,345.481 391.476,347.647 423.5,350C 395.07,366.77 366.903,383.936 339,401.5C 334.843,382.215 331.01,362.881 327.5,343.5 Z"/></g>
</svg>
