<?xml version="1.0" encoding="UTF-8"?>
<!DOCTYPE svg PUBLIC "-//W3C//DTD SVG 1.1//EN" "http://www.w3.org/Graphics/SVG/1.1/DTD/svg11.dtd">
<svg xmlns="http://www.w3.org/2000/svg" version="1.1" width="512px" height="512px" style="shape-rendering:geometricPrecision; text-rendering:geometricPrecision; image-rendering:optimizeQuality; fill-rule:evenodd; clip-rule:evenodd" xmlns:xlink="http://www.w3.org/1999/xlink">
<g><path style="opacity:0.947" fill="#000000" d="M 365.5,-0.5 C 368.833,-0.5 372.167,-0.5 375.5,-0.5C 380.053,2.61314 381.886,6.94648 381,12.5C 364.392,68.1553 347.892,123.822 331.5,179.5C 387.178,163.108 442.845,146.608 498.5,130C 504.054,129.114 508.387,130.947 511.5,135.5C 511.5,138.833 511.5,142.167 511.5,145.5C 507.047,159.291 502.88,173.291 499,187.5C 497.878,189.624 496.378,191.457 494.5,193C 429.899,221.977 365.399,251.143 301,280.5C 292.549,309.81 283.715,338.977 274.5,368C 300.282,391.609 308.782,420.442 300,454.5C 288.78,485.898 266.947,504.898 234.5,511.5C 226.167,511.5 217.833,511.5 209.5,511.5C 167.014,501.505 144.014,474.672 140.5,431C 141.815,394.026 159.481,368.359 193.5,354C 198.023,352.203 202.69,351.036 207.5,350.5C 206.825,336.42 205.492,322.42 203.5,308.5C 202.975,307.808 202.308,307.308 201.5,307C 187.861,305.442 174.194,304.275 160.5,303.5C 154.22,333.95 136.553,354.783 107.5,366C 66.4417,377.317 33.9417,365.483 10,330.5C 4.97807,321.258 1.47807,311.592 -0.5,301.5C -0.5,293.167 -0.5,284.833 -0.5,276.5C 9.55602,233.788 36.556,210.788 80.5,207.5C 105.831,207.657 126.664,217.324 143,236.5C 172.023,227.285 201.19,218.451 230.5,210C 259.857,145.601 289.023,81.1012 318,16.5C 319.543,14.6217 321.376,13.1217 323.5,12C 337.709,8.11976 351.709,3.95309 365.5,-0.5 Z M 351.5,25.5 C 352.5,25.5 353.5,25.5 354.5,25.5C 320.982,139.566 287.149,253.566 253,367.5C 252.163,371.295 252.496,374.961 254,378.5C 284.054,402.161 290.054,430.828 272,464.5C 248.736,492.604 220.902,498.104 188.5,481C 165.676,463.865 157.51,441.365 164,413.5C 174.005,385.727 193.839,370.894 223.5,369C 226.728,367.437 228.895,364.937 230,361.5C 238.735,340.033 246.902,318.366 254.5,296.5C 252.988,286.951 247.655,283.784 238.5,287C 236.622,288.543 235.122,290.376 234,292.5C 231.53,299.578 228.863,306.578 226,313.5C 224.139,301.888 223.139,290.221 223,278.5C 260.167,196.167 297.333,113.833 334.5,31.5C 340.21,29.3319 345.877,27.3319 351.5,25.5 Z M 481.5,156.5 C 482.833,156.5 484.167,156.5 485.5,156.5C 484.119,163.358 482.119,170.024 479.5,176.5C 423.393,201.97 367.226,227.304 311,252.5C 310.5,252.167 310,251.833 309.5,251.5C 314.407,235.614 319.407,219.781 324.5,204C 377.036,188.429 429.37,172.596 481.5,156.5 Z M 72.5,228.5 C 97.8364,227.003 117.836,236.503 132.5,257C 134.534,258.006 136.7,258.506 139,258.5C 165.522,251.453 191.855,243.787 218,235.5C 213.283,248.286 207.95,260.952 202,273.5C 201.501,277.486 201.334,281.486 201.5,285.5C 183.532,283.603 165.532,282.436 147.5,282C 145,283.167 143.167,285 142,287.5C 139.099,321.063 121.266,341.563 88.5,349C 52.8446,350.424 30.3446,333.924 21,299.5C 18.647,261.501 35.8137,237.834 72.5,228.5 Z M 77.5,276.5 C 91.8198,276.647 97.3198,283.647 94,297.5C 86.0715,307.68 77.7382,308.013 69,298.5C 64.8764,288.422 67.7097,281.088 77.5,276.5 Z M 221.5,415.5 C 234.584,418.336 238.751,426.003 234,438.5C 226,446.5 218,446.5 210,438.5C 205.342,426.483 209.175,418.816 221.5,415.5 Z"/></g>
<g><path style="opacity:0.944" fill="#000000" d="M 75.5,255.5 C 103.465,255.63 116.965,269.63 116,297.5C 108.337,321.586 92.17,330.419 67.5,324C 49.8359,315.169 43.0025,301.003 47,281.5C 51.6472,267.44 61.1472,258.773 75.5,255.5 Z M 77.5,276.5 C 67.7097,281.088 64.8764,288.422 69,298.5C 77.7382,308.013 86.0715,307.68 94,297.5C 97.3198,283.647 91.8198,276.647 77.5,276.5 Z"/></g>
<g><path style="opacity:0.887" fill="#000000" d="M 252.5,257.5 C 264.469,258.579 267.969,264.579 263,275.5C 259.319,278.36 255.152,279.193 250.5,278C 244.975,275.081 243.142,270.581 245,264.5C 246.767,261.228 249.267,258.895 252.5,257.5 Z"/></g>
<g><path style="opacity:0.944" fill="#000000" d="M 221.5,394.5 C 248.413,398.249 259.913,413.582 256,440.5C 248.563,460.14 234.396,468.307 213.5,465C 194.015,458.542 185.182,445.042 187,424.5C 191.588,406.404 203.088,396.404 221.5,394.5 Z M 221.5,415.5 C 209.175,418.816 205.342,426.483 210,438.5C 218,446.5 226,446.5 234,438.5C 238.751,426.003 234.584,418.336 221.5,415.5 Z"/></g>
</svg>
